<?xml version="1.0" encoding="UTF-8"?>
<svg width="100px" height="100px" viewBox="0 0 100 100" version="1.1" xmlns="http://www.w3.org/2000/svg" xmlns:xlink="http://www.w3.org/1999/xlink">
    <!-- Generator: Sketch 46.2 (44496) - http://www.bohemiancoding.com/sketch -->
    <title>engineer</title>
    <desc>Created with Sketch.</desc>
    <defs></defs>
    <g id="Page-1-Copy" stroke="none" stroke-width="1" fill="none" fill-rule="evenodd">
        <g id="Desktop-HD" transform="translate(-671.000000, -3121.000000)" fill-rule="nonzero" fill="#000000">
            <g id="trayectoria" transform="translate(0.000000, 1623.000000)">
                <g id="Group-9">
                    <g id="Group-8" transform="translate(239.000000, 270.000000)">
                        <g id="timeline-item-copy-4" transform="translate(0.000000, 1186.000000)">
                            <g id="tl-icon" transform="translate(392.000000, 2.000000)">
                                <g id="engineer" transform="translate(40.000000, 40.000000)">
                                    <path d="M94.9257937,82.935119 C84.9863095,77.6642857 77.3623016,74.7087302 70.5751984,73.5755952 L71.2775794,72.6099206 C71.6107143,72.2767857 71.7771825,71.7771825 71.6107143,71.2775794 L70.05,65.0349206 C74.1777778,59.1996032 76.606746,51.9043651 76.606746,44.964881 L76.606746,38.303373 L78.2720238,38.303373 L81.6027778,38.303373 C82.6019841,38.303373 83.2680556,37.6373016 83.2680556,36.6380952 C83.2680556,35.6388889 82.6019841,34.9728175 81.6027778,34.9728175 L79.9375,34.9728175 L79.9375,33.3075397 C79.9375,20.1511905 71.2775794,8.99325397 58.2876984,5.32936508 L58.2876984,4.99603175 C58.2876984,2.33134921 56.1228175,0 53.2916667,0 L46.6301587,0 C43.9654762,0 41.634127,2.16488095 41.634127,4.99603175 L41.634127,5.32916667 C28.644246,8.99305556 19.9843254,20.1509921 19.9843254,33.3073413 L19.9843254,34.972619 L18.3190476,34.972619 C17.3198413,34.972619 16.6537698,35.6386905 16.6537698,36.6378968 C16.6537698,37.6371032 17.3198413,38.3031746 18.3190476,38.3031746 L21.6498016,38.3031746 L23.3150794,38.3031746 L23.3150794,44.9646825 C23.3150794,51.9041667 25.7440476,59.1994048 29.8718254,65.0349206 L28.3111111,71.2775794 C28.3111111,71.6107143 28.3111111,72.2767857 28.644246,72.6099206 L29.346627,73.5755952 C22.5597222,74.7089286 14.9355159,77.6642857 4.99603175,82.935119 C1.83194444,84.434127 0,87.5982143 0,91.0954365 L0,98.2565476 C0,99.255754 0.666071429,99.9218254 1.66527778,99.9218254 L41.634127,99.9218254 L42.3001984,99.9218254 L57.621627,99.9218254 L58.2876984,99.9218254 L98.2565476,99.9218254 C99.255754,99.9218254 99.9218254,99.255754 99.9218254,98.2565476 L99.9218254,91.0954365 C99.9220238,87.7646825 97.9234127,84.6005952 94.9257937,82.935119 Z M48.9623016,81.3936508 L49.9704365,79.1253968 L52.4595238,84.6015873 L54.0875,88.2642857 L45.9642857,88.2642857 L48.9623016,81.3936508 Z M44.6984127,91.5950397 L55.2109127,91.5950397 L56.1625,96.5910714 L43.6992063,96.5910714 L44.6984127,91.5950397 Z M67.4472222,68.2799603 L68.1132937,71.2775794 L66.4121032,73.6134921 C66.3035714,73.7021825 66.2031746,73.8097222 66.114881,73.9420635 L59.1878968,83.5333333 L56.989881,86.5513889 L52.5001984,76.4496032 C57.8668651,75.7950397 62.6575397,73.1009921 66.5267857,69.2293651 C66.5696429,69.1869048 66.6126984,69.1448413 66.6553571,69.1019841 C66.6656746,69.0914683 66.6759921,69.0809524 66.6863095,69.0704365 C66.9428571,68.8130952 67.196627,68.55 67.4472222,68.2799603 Z M65.2775794,12.1803571 C65.4625,12.303373 65.6458333,12.428373 65.8271825,12.555754 C67.95,14.1376984 69.9095238,15.990873 71.444246,17.9859127 L63.7835317,19.4847222 L65.2775794,12.1803571 Z M36.1384921,19.4847222 L28.4777778,17.9859127 C30.0125,15.9906746 31.9722222,14.1375 34.0950397,12.5555556 C34.2761905,12.428373 34.4595238,12.303373 34.6444444,12.1803571 L36.1384921,19.4847222 Z M23.3150794,33.3073413 C23.3150794,28.8757937 24.430754,24.6950397 26.45,21.0414683 L37.9704365,23.3152778 C38.1369048,23.3152778 38.1369048,23.3152778 38.3035714,23.3152778 C38.8031746,23.3152778 39.1363095,23.1488095 39.6359127,22.9821429 C40.1355159,22.6490079 40.3019841,21.9829365 40.1355159,21.4833333 L37.8492063,10.3563492 C39.053373,9.77698413 40.3170635,9.27936508 41.6343254,8.8702381 L41.6343254,13.3230159 C41.6343254,14.3222222 42.3003968,14.9882937 43.2996032,14.9882937 C44.2988095,14.9882937 44.964881,14.3222222 44.964881,13.3230159 L44.964881,6.66150794 L44.964881,4.99603175 C44.964881,4.16329365 45.6309524,3.33075397 46.6301587,3.33075397 L53.2916667,3.33075397 C54.1244048,3.33075397 54.9569444,3.9968254 54.9569444,4.99603175 L54.9569444,6.66130952 L54.9569444,13.3228175 C54.9569444,14.3220238 55.6230159,14.9880952 56.6222222,14.9880952 C57.6214286,14.9880952 58.2875,14.3220238 58.2875,13.3228175 L58.2875,8.8702381 C59.6486111,9.29285714 60.9531746,9.80952381 62.193254,10.4136905 L59.9529762,21.3168651 C59.9529762,21.8164683 60.1194444,22.4825397 60.4525794,22.8156746 C60.7857143,23.1488095 61.1186508,23.3152778 61.618254,23.3152778 C61.7847222,23.3152778 61.7847222,23.3152778 61.9513889,23.3152778 L73.3972222,20.9055556 C75.4638889,24.5912698 76.6065476,28.8210317 76.6065476,33.3073413 L76.6065476,34.972619 L74.9412698,34.972619 L24.9805556,34.972619 L23.3152778,34.972619 L23.3152778,33.3073413 L23.3150794,33.3073413 Z M26.6458333,38.303373 L73.2759921,38.303373 L73.2759921,44.964881 C73.2759921,52.2265873 70.7849206,58.6795635 67.0448413,63.5845238 L66.947619,63.6168651 C66.7811508,63.7833333 66.6144841,63.95 66.4480159,64.1164683 C65.610119,65.2337302 64.7257937,66.252381 63.8017857,67.1708333 C59.8805556,70.8240079 55.203373,73.0367063 50.696627,73.2559524 C50.4698413,73.1585317 50.2154762,73.1095238 49.9609127,73.1095238 C49.7049603,73.1095238 49.4742063,73.1597222 49.2672619,73.2581349 C46.5085317,73.1315476 43.685119,72.2571429 41.0087302,70.7613095 C38.2974206,69.2035714 35.7468254,66.9579365 33.4736111,64.1164683 C33.3071429,63.95 33.1404762,63.7833333 32.9740079,63.6168651 L32.8767857,63.5845238 C29.1367063,58.6793651 26.6456349,52.2263889 26.6456349,44.964881 L26.6456349,38.303373 L26.6458333,38.303373 Z M47.421627,76.45 L42.9319444,86.5517857 L40.7339286,83.5337302 L33.8069444,73.9424603 C33.7539683,73.8894841 33.6952381,73.8369048 33.6345238,73.785119 L31.8085317,71.2777778 L32.4746032,68.2801587 C32.7003968,68.5232143 32.9293651,68.760119 33.1605159,68.993254 C37.0700397,72.9914683 41.9460317,75.7821429 47.421627,76.45 Z M3.33075397,91.0954365 C3.33075397,88.9305556 4.49642857,86.9319444 6.49503968,85.9327381 C17.1103175,80.293254 24.7519841,77.4628968 31.559127,76.6174603 L41.4972222,90.2821429 L40.2355159,96.590873 L3.33075397,96.590873 L3.33075397,91.0954365 Z M96.5912698,96.5912698 L59.6867063,96.5912698 L58.425,90.2825397 L68.4706349,76.4698413 C75.2539683,77.4934524 83.0323413,80.321627 93.4269841,85.7664683 C95.4253968,86.9321429 96.5912698,88.930754 96.5912698,91.0956349 L96.5912698,96.5912698 L96.5912698,96.5912698 Z" id="Shape"></path>
                                </g>
                            </g>
                        </g>
                    </g>
                </g>
            </g>
        </g>
    </g>
</svg>