<?xml version="1.0" encoding="UTF-8"?>
<svg width="88px" height="100px" viewBox="0 0 88 100" version="1.1" xmlns="http://www.w3.org/2000/svg" xmlns:xlink="http://www.w3.org/1999/xlink">
    <!-- Generator: Sketch 46.2 (44496) - http://www.bohemiancoding.com/sketch -->
    <title>idea</title>
    <desc>Created with Sketch.</desc>
    <defs></defs>
    <g id="Page-1-Copy" stroke="none" stroke-width="1" fill="none" fill-rule="evenodd">
        <g id="Desktop-HD" transform="translate(-676.000000, -1935.000000)" fill-rule="nonzero" fill="#000000">
            <g id="trayectoria" transform="translate(0.000000, 1623.000000)">
                <g id="Group-9">
                    <g id="Group-8" transform="translate(239.000000, 270.000000)">
                        <g id="timeline-item">
                            <g id="tl-icon" transform="translate(392.000000, 2.000000)">
                                <g id="idea" transform="translate(45.000000, 40.000000)">
                                    <path d="M87.9939189,0.0304054054 L78.6422297,7.03040541 L69.2375,28.9577703 L61.6746622,28.9577703 L58.7050676,22.5226351 L60.6452703,22.5226351 C64.1942568,22.5226351 67.0804054,19.6672297 67.0804054,16.1182432 L67.0804054,9.65236486 L70.297973,9.65236486 L70.297973,0 L60.6452703,0 L60.6452703,9.65236486 L63.8628378,9.65236486 L63.8628378,16.1182432 C63.8628378,17.8912162 62.4199324,19.3050676 60.6452703,19.3050676 L57.2202703,19.3050676 L53.1081081,10.4087838 L58.0341216,7.95371622 L41.9047297,1.04560811 L38.1128378,14.3162162 C38.0097973,6.42060811 31.5635135,0.0290540541 23.6435811,0.0290540541 C15.6594595,0.0290540541 9.16486486,6.52364865 9.16486486,14.5077703 C9.16486486,19.3324324 11.6084459,23.8577703 15.6,26.5331081 L15.6,28.9574324 L11.7037162,28.9574324 L11.4527027,30.2766892 C10.6709459,34.3324324 10.5983108,38.5006757 11.2371622,42.6577703 L0.262162162,62.2202703 L12.3824324,64.9888514 L12.3824324,85.2638514 L28.4699324,85.2638514 L28.4699324,99.7425676 L67.0800676,99.7425676 L67.0800676,77.3246622 C78.3412162,69.3581081 84.772973,56.5493243 84.7635135,42.8844595 L84.7668919,37.0158784 C84.7668919,34.8037162 84.5625,32.5307432 84.1506757,30.2912162 L83.9125,28.9574324 L80.7543919,28.9574324 L87.9939189,11.6135135 L87.9939189,0.0304054054 Z M63.8625,6.46554054 L63.8625,3.24797297 L67.0800676,3.24797297 L67.0800676,6.46554054 L63.8625,6.46554054 L63.8625,6.46554054 Z M58.1307432,28.9574324 L52.0287162,28.9574324 L49.1040541,22.5222973 L55.1611486,22.5222973 L58.1307432,28.9574324 Z M43.9929054,5.44560811 L50.3878378,8.18547297 L48.8787162,8.92533784 L53.6760135,19.3050676 L47.6415541,19.3050676 L43.7209459,10.7 L42.2810811,11.427027 L43.9929054,5.44560811 Z M48.4942568,28.9577703 L41.3402027,28.9577703 L41.3402027,25.7709459 C41.3402027,23.9966216 42.7831081,22.522973 44.5577703,22.522973 L45.5695946,22.522973 L45.5695946,22.5226351 L48.4942568,28.9577703 Z M42.1766892,15.0851351 L44.1280405,19.3790541 C40.7817568,19.6043919 38.1226351,22.3682432 38.1226351,25.7706081 L38.1226351,28.9574324 L31.6875,28.9574324 L31.6875,26.5331081 C34.9067568,24.3756757 37.0912162,21.0087838 37.8280405,17.2587838 L42.1766892,15.0851351 Z M12.3827703,14.5094595 C12.3827703,8.30135135 17.4358108,3.24831081 23.6439189,3.24831081 C29.852027,3.24831081 34.9050676,8.30135135 34.9050676,14.5094595 C34.9050676,18.5057432 32.7462838,22.239527 29.272973,24.252027 L28.4702703,24.7152027 L28.4702703,28.9574324 L25.2527027,28.9574324 L25.2527027,19.0378378 C27.1206081,18.3719595 28.4702703,16.602027 28.4702703,14.5074324 C28.4702703,11.8466216 26.3047297,9.68108108 23.6439189,9.68108108 C20.9831081,9.68108108 18.8175676,11.8469595 18.8175676,14.5077703 C18.8175676,16.6023649 20.1672297,18.3719595 22.0351351,19.0381757 L22.0351351,28.9577703 L18.8175676,28.9577703 L18.8175676,24.7152027 L18.0148649,24.2503378 C14.5415541,22.2378378 12.3827703,18.5054054 12.3827703,14.5094595 Z M23.6439189,16.1182432 C22.7557432,16.1182432 22.0351351,15.3956081 22.0351351,14.5094595 C22.0351351,13.6212838 22.7557432,12.9006757 23.6439189,12.9006757 C24.5320946,12.9006757 25.2527027,13.6212838 25.2527027,14.5094595 C25.2527027,15.3976351 24.5320946,16.1182432 23.6439189,16.1182432 Z M81.2047297,32.1753378 C81.4381757,33.7837838 81.5557432,35.4152027 81.5557432,37.0013514 L81.5591216,42.8814189 C81.5689189,55.7692568 75.2094595,67.8378378 64.5706081,75.1625 L63.8628378,75.6452703 L63.8628378,96.5253378 L31.6878378,96.5253378 L31.6878378,82.0466216 L15.6,82.0466216 L15.6,62.422973 L5.17364865,60.0435811 L14.5912162,43.2530405 L14.4996622,42.6787162 C13.9013514,39.1587838 13.8675676,35.3925676 14.3871622,32.1753378 L15.6,32.1753378 L31.6875,32.1753378 L81.2047297,32.1753378 Z M77.2682432,28.9574324 L72.7364865,28.9574324 L80.7560811,10.260473 L84.3226351,12.0364865 L77.2682432,28.9574324 Z M84.7763514,8.68716216 L82.9969595,7.79763514 L84.7763514,6.46554054 L84.7763514,8.68716216 Z" id="Shape"></path>
                                    <path d="M26.8614865,41.8277027 C24.2006757,41.8277027 22.0351351,40.2189189 22.0351351,37.0013514 L18.8175676,37.0013514 C18.8175676,41.8277027 22.4260135,45.0452703 26.8614865,45.0452703 C31.2969595,45.0452703 34.9054054,41.8277027 34.9054054,37.0013514 L31.6878378,37.0013514 C31.6875,40.2189189 29.5222973,41.8277027 26.8614865,41.8277027 Z" id="Shape"></path>
                                </g>
                            </g>
                        </g>
                    </g>
                </g>
            </g>
        </g>
    </g>
</svg>