<?xml version="1.0" encoding="UTF-8"?>
<svg width="76px" height="100px" viewBox="0 0 76 100" version="1.1" xmlns="http://www.w3.org/2000/svg" xmlns:xlink="http://www.w3.org/1999/xlink">
    <!-- Generator: Sketch 46.2 (44496) - http://www.bohemiancoding.com/sketch -->
    <title>interactivity</title>
    <desc>Created with Sketch.</desc>
    <defs></defs>
    <g id="Page-1-Copy" stroke="none" stroke-width="1" fill="none" fill-rule="evenodd">
        <g id="Desktop-HD" transform="translate(-683.000000, -2875.000000)" fill-rule="nonzero" fill="#000000">
            <g id="trayectoria" transform="translate(0.000000, 1623.000000)">
                <g id="Group-9">
                    <g id="Group-8" transform="translate(239.000000, 270.000000)">
                        <g id="timeline-item-copy" transform="translate(392.000000, 940.000000)">
                            <g id="interactivity" transform="translate(52.000000, 42.000000)">
                                <path d="M67.4135593,48.1040254 C64.6760593,48.1040254 62.245339,49.442161 60.7413136,51.4989407 C59.2372881,49.442161 56.8067797,48.1040254 54.0692797,48.1040254 C51.3317797,48.1040254 48.9010593,49.442161 47.3970339,51.4989407 C45.8930085,49.442161 43.4625,48.1040254 40.725,48.1040254 C38.8095339,48.1040254 37.0444915,48.7591102 35.6417373,49.8572034 L35.6417373,27.3290254 C35.6417373,22.7739407 31.9358051,19.0677966 27.3807203,19.0677966 C22.8256356,19.0677966 19.1194915,22.7737288 19.1194915,27.3290254 L19.1194915,85.578178 C19.1194915,93.4637712 25.5347458,99.8790254 33.420339,99.8790254 L61.3735169,99.8790254 C69.2591102,99.8790254 75.6743644,93.4637712 75.6743644,85.578178 L75.6743644,56.3650424 C75.6745763,51.8097458 71.9686441,48.1040254 67.4135593,48.1040254 Z M72.4966102,85.578178 C72.4966102,91.7114407 67.5069915,96.7010593 61.3737288,96.7010593 L33.4205508,96.7010593 C27.2872881,96.7010593 22.2976695,91.7114407 22.2976695,85.578178 L22.2976695,27.3290254 C22.2976695,24.5262712 24.5779661,22.2457627 27.3809322,22.2457627 C30.1838983,22.2457627 32.4639831,24.5260593 32.4639831,27.3290254 L32.4639831,59.5430085 C32.4639831,60.4205508 33.1754237,61.1319915 34.0529661,61.1319915 C34.9305085,61.1319915 35.6419492,60.4205508 35.6419492,59.5430085 L35.6419492,56.3650424 C35.6419492,53.5622881 37.9222458,51.2819915 40.7252119,51.2819915 C43.528178,51.2819915 45.8082627,53.5622881 45.8082627,56.3650424 L45.8082627,59.5430085 C45.8082627,60.4205508 46.5197034,61.1319915 47.3972458,61.1319915 C48.2747881,61.1319915 48.9862288,60.4205508 48.9862288,59.5430085 L48.9862288,56.3650424 C48.9862288,53.5622881 51.2665254,51.2819915 54.0694915,51.2819915 C56.8724576,51.2819915 59.1525424,53.5622881 59.1525424,56.3650424 L59.1525424,59.5430085 C59.1525424,60.4205508 59.8639831,61.1319915 60.7415254,61.1319915 C61.6190678,61.1319915 62.3305085,60.4205508 62.3305085,59.5430085 L62.3305085,56.3650424 C62.3305085,53.5622881 64.6108051,51.2819915 67.4137712,51.2819915 C70.2167373,51.2819915 72.496822,53.5622881 72.496822,56.3650424 L72.496822,85.578178 L72.4966102,85.578178 Z" id="Shape"></path>
                                <path d="M41.9976695,27.3290254 C41.9976695,30.4851695 41.0067797,33.490678 39.1322034,36.0205508 C38.6097458,36.7256356 38.7576271,37.7207627 39.4629237,38.2432203 C40.1677966,38.7654661 41.1631356,38.6175847 41.6855932,37.9125 C43.9688559,34.8311441 45.1758475,31.1713983 45.1758475,27.3288136 C45.1758475,17.5167373 37.1930085,9.53368644 27.3809322,9.53368644 C17.5688559,9.53368644 9.58580508,17.5165254 9.58580508,27.3288136 C9.58580508,31.1713983 10.7927966,34.8311441 13.0760593,37.9127119 C13.3879237,38.3334746 13.8675847,38.5557203 14.3540254,38.5557203 C14.682839,38.5557203 15.0144068,38.4540254 15.2987288,38.2432203 C16.0038136,37.7207627 16.1519068,36.7256356 15.6294492,36.0205508 C13.754661,33.490678 12.7637712,30.4851695 12.7637712,27.3288136 C12.7637712,19.2690678 19.3209746,12.7116525 27.3809322,12.7116525 C35.4408898,12.7116525 41.9976695,19.2690678 41.9976695,27.3290254 Z" id="Shape"></path>
                                <path d="M15.1580508,48.1614407 C7.80042373,43.8345339 3.22966102,35.8519068 3.22966102,27.3290254 C3.22966102,21.8966102 4.99152542,16.7658898 8.32457627,12.4915254 C8.86419492,11.7995763 8.74067797,10.8010593 8.04872881,10.2614407 C7.35677966,9.72161017 6.35826271,9.84512712 5.81864407,10.5372881 C2.04597458,15.3752119 0.0516949153,21.1817797 0.0516949153,27.3290254 C0.0516949153,32.1771186 1.33834746,36.9400424 3.77266949,41.1029661 C6.13411017,45.1411017 9.51398305,48.5290254 13.5470339,50.9008475 C13.8,51.0497881 14.0773305,51.120339 14.3510593,51.120339 C14.8957627,51.120339 15.4260593,50.8400424 15.7222458,50.3366525 C16.167161,49.5800847 15.9146186,48.6061441 15.1580508,48.1614407 Z" id="Shape"></path>
                                <path d="M12.5432203,8.27288136 C16.8175847,4.93983051 21.9483051,3.1779661 27.3807203,3.1779661 C40.6974576,3.1779661 51.5315678,14.0120763 51.5315678,27.3290254 C51.5315678,33.3561441 49.2989407,39.1277542 45.2449153,43.5811441 C44.6542373,44.2300847 44.7014831,45.2351695 45.3504237,45.8258475 C45.6550847,46.103178 46.0379237,46.2398305 46.4197034,46.2398305 C46.8514831,46.2398305 47.2815678,46.0648305 47.5951271,45.7205508 C52.182839,40.6807203 54.7095339,34.1491525 54.7095339,27.3290254 C54.7095339,12.2597458 42.45,0 27.3807203,0 C21.2334746,0 15.4271186,1.99427966 10.5889831,5.76694915 C9.89682203,6.3065678 9.77330508,7.30508475 10.3129237,7.9970339 C10.8527542,8.68919492 11.8512712,8.81292373 12.5432203,8.27288136 Z" id="Shape"></path>
                            </g>
                        </g>
                    </g>
                </g>
            </g>
        </g>
    </g>
</svg>