<?xml version="1.0" encoding="UTF-8"?>
<svg width="103px" height="41px" viewBox="0 0 103 41" version="1.1" xmlns="http://www.w3.org/2000/svg" xmlns:xlink="http://www.w3.org/1999/xlink">
    <!-- Generator: Sketch 46.2 (44496) - http://www.bohemiancoding.com/sketch -->
    <title>reflogo</title>
    <desc>Created with Sketch.</desc>
    <defs></defs>
    <g id="Page-1-Copy" stroke="none" stroke-width="1" fill="none" fill-rule="evenodd">
        <g id="Desktop-HD" transform="translate(-142.000000, -12.000000)">
            <g id="header">
                <g id="reflogo" transform="translate(139.000000, 10.000000)">
                    <rect id="Rectangle-6" x="3" y="2" width="104" height="42"></rect>
                    <path d="M2.0753962,31.2841477 C1.96884082,31.3054588 1.87294241,31.2255435 1.7876981,31.0443993 C1.70245379,30.8632552 1.60655539,30.6874414 1.5,30.5169528 L1.85163101,30.5169528 C1.70245347,30.0481091 1.66515965,29.6165663 1.73974842,29.2223113 C1.81433719,28.8280564 1.90490791,28.4444628 2.01146329,28.0715189 C2.11801868,27.6985751 2.2085894,27.3362922 2.28317817,26.9846594 C2.35776694,26.6330266 2.32047311,26.2654161 2.17129557,25.8818167 C2.27785096,25.9457499 2.3577663,25.9191115 2.41104399,25.8019006 C2.46432168,25.6846896 2.5069432,25.5355143 2.53890981,25.3543702 C2.57087643,25.173226 2.58153181,24.9814292 2.57087627,24.778974 C2.56022073,24.5765187 2.54423766,24.4113604 2.52292659,24.2834939 C2.79997059,23.6228505 3.01840585,22.9409063 3.17823893,22.2376407 C3.33807201,21.5343752 3.48191962,20.8364479 3.60978608,20.1438379 C3.73765255,19.4512279 3.88150016,18.779939 4.04133324,18.1299512 C4.20116632,17.4799633 4.4089462,16.867279 4.66467913,16.29188 C4.9630342,16.2492578 5.27736788,16.2865516 5.60768957,16.4037625 C5.93801127,16.5209735 6.15644653,16.6648211 6.26300192,16.8353097 C6.92364531,16.3238439 7.50969114,15.7058319 8.02115699,14.9812553 C8.53262284,14.2566786 9.0494087,13.548096 9.57153009,12.855486 C10.0936515,12.1628759 10.685025,11.5501917 11.3456684,11.0174147 C12.0063118,10.4846378 12.8267759,10.1649765 13.8070855,10.0584211 C14.3185513,10.4207094 14.8939418,10.8096307 15.5332741,11.2251967 C16.1726064,11.6407627 16.69472,12.1575486 17.0996304,12.7755698 C17.2701191,12.8821252 17.4352774,12.9940067 17.5951105,13.1112176 C17.7549436,13.2284285 17.920102,13.34031 18.0905906,13.4468654 L18.0905906,13.9263622 C18.3889456,14.2034062 18.639347,14.5283953 18.8418023,14.9013391 C19.0442575,15.274283 19.2253989,15.668532 19.385232,16.084098 C19.5450651,16.499664 19.6995681,16.9205515 19.8487456,17.346773 C19.9979232,17.7729945 20.1684092,18.1672435 20.3602089,18.5295319 C20.3175868,18.6573983 20.3016037,18.7692798 20.3122592,18.8651796 C20.3229148,18.9610795 20.3442255,19.0569779 20.3761922,19.1528777 C20.4081588,19.2487776 20.4347972,19.3553314 20.4561083,19.4725423 C20.4774194,19.5897532 20.4880748,19.7336008 20.4880748,19.9040895 C20.4028304,21.0335765 20.0352199,21.9446114 19.385232,22.6372214 C18.7352442,23.3298314 17.9467462,23.8945665 17.0197143,24.3314436 C16.0926824,24.7683207 15.1070599,25.1412589 14.0628171,25.4502695 C13.0185744,25.7592802 12.0702457,26.0949246 11.2178026,26.4572129 C11.2178026,26.5424572 11.2657518,26.5850787 11.3616516,26.5850787 C11.4575515,26.5850787 11.4841899,26.649011 11.4415678,26.7768775 C12.0809001,27.1604768 12.5763752,27.4694828 12.928008,27.7039047 C13.2796407,27.9383265 13.6099575,28.135451 13.9189681,28.2952841 C14.2279787,28.4551172 14.5689508,28.5883094 14.9418947,28.6948648 C15.3148385,28.8014202 15.8316244,28.9292847 16.4922678,29.0784623 C17.1529112,29.2276398 17.669697,29.3501767 18.0426409,29.4460765 C18.4155847,29.5419764 18.7512292,29.616564 19.0495842,29.6698417 C19.3479393,29.7231194 19.6676007,29.7710686 20.0085779,29.8136908 C20.3495551,29.8563129 20.8077364,29.9095898 21.3831355,29.973523 C21.6175574,30.2079449 21.8093542,30.4849847 21.9585317,30.8046509 C22.1077093,31.124317 22.214263,31.4439784 22.2781963,31.7636446 C22.3421295,32.0833107 22.3581126,32.386989 22.326146,32.6746886 C22.2941793,32.9623881 22.2036086,33.1914787 22.0544311,33.3619674 C22.0757422,33.4472117 22.1343467,33.4845055 22.2302466,33.47385 C22.3261464,33.4631944 22.4273725,33.4685221 22.5339279,33.4898332 C22.3847504,33.5963886 22.2568858,33.7242531 22.1503305,33.8734306 L21.8306659,34.320961 C21.7241105,34.4701386 21.6015737,34.6086585 21.4630517,34.736525 C21.3245297,34.8643914 21.1487159,34.9389791 20.9356051,34.9602901 C20.1684064,35.2586452 19.1881115,35.2693006 17.9946912,34.9922566 C16.8012709,34.7152126 15.2775517,34.2250652 13.423488,33.5217996 C12.5071117,33.1808224 11.7612352,32.8718164 11.1858361,32.5947724 C10.610437,32.3177284 10.1096342,32.0460163 9.68341269,31.7796278 C9.25719115,31.5132393 8.86294213,31.2255441 8.50065382,30.9165335 C8.13836551,30.6075229 7.72280574,30.2399123 7.25396205,29.8136908 C7.19002882,29.8350018 7.15273499,29.8776234 7.14207945,29.9415566 C7.13142391,30.0054898 7.09413009,30.0481113 7.03019686,30.0694224 C6.92364147,30.9218655 6.7584831,31.6144651 6.53471679,32.147242 C6.31095048,32.680019 5.98596143,33.2234433 5.55973989,33.7775313 C5.21876265,33.7135981 4.98967201,33.7455642 4.87246109,33.8734306 C4.75525016,34.0012971 4.61140255,34.1185063 4.44091393,34.2250617 C4.22780316,34.2676838 4.06797248,34.2623561 3.9614171,34.2090784 C3.85486171,34.1558007 3.7589633,34.0971962 3.673719,34.0332629 C3.58847469,33.9693297 3.49257628,33.9053974 3.38602089,33.8414642 C3.27946551,33.777531 3.10897945,33.7562202 2.8745576,33.7775313 C2.81062437,33.5857316 2.7466921,33.3992625 2.68275887,33.2181183 C2.61882563,33.0369742 2.44833957,32.9570588 2.17129557,32.9783699 C2.2352288,32.7865702 2.25653956,32.6214118 2.23522848,32.4828898 C2.21391741,32.3443678 2.18195127,32.2165033 2.13932912,32.0992924 C2.09670696,31.9820814 2.05941314,31.8595446 2.02744652,31.7316781 C1.99547991,31.6038116 2.01146297,31.4546363 2.0753962,31.2841477 Z M12.7521924,16.6754774 C12.4751484,17.0803879 12.1661425,17.4479985 11.8251652,17.7783201 C11.484188,18.1086418 11.1485436,18.449614 10.8182219,18.8012467 C10.4879002,19.1528795 10.1948773,19.5364731 9.93914433,19.9520391 C9.68341141,20.3676051 9.50226997,20.8630803 9.39571459,21.4384793 C10.2907798,21.331924 11.2284532,21.0815226 12.2087627,20.6872676 C13.1890722,20.2930127 14.1160902,19.9147468 14.9898444,19.5524584 C14.883289,18.7639486 14.6062491,18.1299536 14.1587165,17.6504543 C13.7111839,17.1709551 13.2423472,16.845966 12.7521924,16.6754774 Z M28.1280577,31.0284161 C27.9149469,31.1989047 27.7870824,31.41734 27.7444602,31.6837284 C27.7018381,31.9501169 27.6485612,32.2111737 27.5846279,32.4669066 C27.5206947,32.7226395 27.4088132,32.9410748 27.2489802,33.1222189 C27.0891471,33.3033631 26.8067795,33.3832784 26.4018691,33.3619674 C26.3166248,33.4685227 26.3006417,33.532455 26.3539194,33.5537661 C26.4071971,33.5750772 26.4551463,33.6709756 26.4977684,33.8414642 C26.1994134,33.798842 25.9863058,33.8201528 25.8584393,33.9053971 C25.7305729,33.9906414 25.5707422,34.0545737 25.3789425,34.0971958 C24.8887877,33.9480183 24.4785556,33.6763061 24.1482339,33.2820512 C23.8179122,32.8877963 23.530217,32.4562535 23.2851396,31.9874098 C23.0400623,31.5185661 22.8269547,31.039074 22.6458105,30.5489192 C22.4646664,30.0587645 22.2781972,29.6325493 22.0863975,29.270261 C22.0863975,29.1850167 22.1236914,29.1477229 22.1982801,29.1583784 C22.2728689,29.169034 22.3421289,29.1743616 22.4060621,29.1743616 C22.2995067,28.9612509 22.2195914,28.7215049 22.1663137,28.4551164 C22.113036,28.1887279 22.0118099,27.9702927 21.8626324,27.799804 C22.4806536,26.4785173 23.1412871,25.0986457 23.8445526,23.660148 C24.5478182,22.2216503 25.2564008,20.7618634 25.9703219,19.2807436 C26.684243,17.7996237 27.3981534,16.3078707 28.1120745,14.8054398 C28.8259955,13.3030088 29.5132675,11.8272389 30.1739109,10.3780856 C30.770621,10.5911964 31.3513392,10.8415978 31.9160827,11.1292973 C32.4808263,11.4169969 32.9976121,11.7526413 33.4664558,12.1362407 C33.9352995,12.5198401 34.3348762,12.9620383 34.6651979,13.4628486 C34.9955196,13.9636589 35.2139549,14.5337217 35.3205103,15.173054 C35.2778881,15.3009205 35.2246112,15.343542 35.160678,15.3009198 C35.0967447,15.2582977 35.0434678,15.2796084 35.0008457,15.3648527 C35.1074011,15.4927192 35.1660057,15.5832899 35.1766612,15.6365676 C35.1873167,15.6898453 35.181989,15.7431222 35.160678,15.7963999 C35.1393669,15.8496776 35.1287115,15.9189375 35.1287115,16.0041818 C35.1287115,16.0894262 35.1819884,16.2066353 35.2885438,16.3558129 C35.1819884,16.3345018 35.1074008,16.3504849 35.0647786,16.4037625 C35.0221565,16.4570402 34.9475688,16.4623679 34.8410134,16.4197458 C34.9475688,16.7181009 34.9795349,16.9525192 34.9369128,17.1230078 C34.8942906,17.2934964 34.8303584,17.4479994 34.745114,17.5865214 C34.6598697,17.7250434 34.5906098,17.8742187 34.5373321,18.0340518 C34.4840544,18.1938849 34.5000375,18.4123201 34.5852818,18.6893641 C34.5000375,18.6893641 34.4414329,18.7053472 34.4094663,18.7373138 C34.3774996,18.7692804 34.3508612,18.8065743 34.3295501,18.8491964 C34.308239,18.8918186 34.2816006,18.9291124 34.249634,18.961079 C34.2176674,18.9930456 34.1590628,18.9983733 34.0738185,18.9770622 C34.1377517,19.5311502 34.1590625,20.0905576 34.1377514,20.6553012 C34.1164403,21.2200447 34.0951296,21.7954352 34.0738185,22.3814898 C34.0525074,22.9675444 34.0525074,23.5695733 34.0738185,24.1875945 C34.0951296,24.8056158 34.1803726,25.4449385 34.3295501,26.1055819 C35.2459264,25.572805 35.9864753,24.8802053 36.5512188,24.0277623 C37.1159623,23.1753192 37.5634882,22.2269905 37.8938099,21.1827477 C38.2241316,20.1385049 38.4798607,19.0196901 38.6610049,17.8262698 C38.842149,16.6328495 39.0286182,15.4181363 39.2204179,14.1820939 C39.4548397,13.947672 39.6413088,13.6599768 39.7798308,13.3189996 C39.9183528,12.9780223 40.035562,12.6263948 40.1314619,12.2641065 C40.2273617,11.9018182 40.3232601,11.5342076 40.41916,11.1612638 C40.5150598,10.7883199 40.648252,10.4526755 40.8187407,10.1543204 C41.20234,10.1969426 41.5273291,10.3088241 41.7937176,10.4899682 C42.060106,10.6711124 42.3105074,10.8735646 42.5449293,11.0973309 C42.7793511,11.3210972 43.0244248,11.5288771 43.2801577,11.7206768 C43.5358907,11.9124765 43.855552,12.040341 44.2391514,12.1042742 C44.5375065,12.5304958 44.8145463,12.9407279 45.0702793,13.3349828 C45.3260122,13.7292377 45.4964983,14.1714359 45.5817426,14.6615907 C45.4538761,14.8747015 45.3579777,15.1091198 45.2940445,15.3648527 C45.2301112,15.6205857 45.1608513,15.8763147 45.0862625,16.1320477 C45.0116737,16.3877806 44.9104476,16.6221989 44.7825812,16.8353097 C44.6547147,17.0484205 44.4735733,17.2295619 44.2391514,17.3787394 C44.1752182,18.0180718 44.0793198,18.614773 43.9514533,19.168861 C43.8235869,19.722949 43.7063777,20.2663733 43.5998223,20.7991502 C43.4932669,21.3319271 43.3973685,21.8860068 43.3121242,22.4614059 C43.2268799,23.036805 43.1949138,23.6654724 43.2162248,24.3474268 C43.0244251,24.9654481 42.8113176,25.5994431 42.5768957,26.2494309 C42.3424739,26.8994188 42.1719878,27.5014477 42.0654324,28.0555357 C41.660522,28.3752018 41.3408606,28.7694509 41.1064388,29.2382946 C40.8720169,29.7071383 40.6269432,30.1759749 40.3712103,30.6448186 C40.2646549,30.7300629 40.2007226,30.746046 40.1794115,30.6927683 C40.1581005,30.6394906 40.062202,30.6021968 39.8917134,30.5808857 C39.9130245,30.7726854 39.8757307,30.8952223 39.7798308,30.9484999 C39.683931,31.0017776 39.6892587,31.1562806 39.7958141,31.4120136 C39.4335258,31.5825022 39.1138644,31.8062651 38.8368204,32.0833091 C38.5597764,32.3603531 38.2560981,32.6160822 37.9257764,32.8505041 C37.5954547,33.0849259 37.2118611,33.2394289 36.774984,33.3140177 C36.3381069,33.3886064 35.7680441,33.2980357 35.0647786,33.0423028 C34.0205358,32.275104 33.0828625,31.3907076 32.2517305,30.389087 C31.4205985,29.3874663 30.759965,28.2047193 30.2698102,26.8408104 C30.0566995,26.9047436 29.8968688,27.0432635 29.7903134,27.2563743 C29.683758,27.4694851 29.5878596,27.693248 29.5026153,27.9276699 C29.417371,28.1620917 29.332128,28.3751993 29.2468836,28.566999 C29.1616393,28.7587987 29.0337748,28.8546971 28.8632862,28.8546971 C28.820664,29.0464968 28.7407487,29.2223105 28.6235378,29.3821436 C28.5063268,29.5419767 28.3944454,29.7018074 28.28789,29.8616404 C28.1813346,30.0214735 28.1014192,30.1972873 28.0481416,30.389087 C27.9948639,30.5808867 28.0215023,30.7939942 28.1280577,31.0284161 Z M45.1661786,19.6163914 C45.2301119,19.2967252 45.2727334,19.0356684 45.2940445,18.8332132 C45.3153555,18.630758 45.2407679,18.4123227 45.0702793,18.1779008 C45.1555236,17.8369236 45.2247835,17.5705391 45.2780612,17.3787394 C45.3313389,17.1869398 45.3366666,16.9205553 45.2940445,16.5795781 C45.4858442,16.02549 45.7788671,15.5566534 46.173122,15.173054 C46.5673769,14.7894546 46.9989198,14.4644656 47.4677635,14.1980771 C47.9366072,13.9316886 48.4267546,13.7079257 48.9382204,13.5267815 C49.4496863,13.3456374 49.9291783,13.1911344 50.3767109,13.0632679 C50.3767109,12.9780236 50.3340894,12.9354021 50.2488451,12.9354021 C50.1636008,12.9354021 50.1422901,12.8821252 50.1849122,12.7755698 C51.3357104,12.562459 52.491819,12.2534531 53.6532727,11.8485426 C54.8147264,11.4436321 56.0028011,11.0813493 57.2175325,10.7616831 C58.4322639,10.4420169 59.6789432,10.2448924 60.9576078,10.1703037 C62.2362724,10.0957149 63.5788502,10.2608733 64.9853812,10.6657837 C65.0706256,10.9215167 65.1878347,11.1665904 65.3370123,11.4010122 C65.4861898,11.6354341 65.6406928,11.8645247 65.8005259,12.088291 C65.9603589,12.3120573 66.1042066,12.5304926 66.232073,12.7436034 C66.3599395,12.9567141 66.4345271,13.1804771 66.4558382,13.4148989 C66.7115711,13.6493208 66.919351,13.8997222 67.0791841,14.1661106 C67.2390172,14.4324991 67.2656556,14.7894543 67.1591002,15.2369869 C66.9246784,15.4074755 66.6796047,15.5779616 66.4238718,15.7484502 C66.1681388,15.9189388 65.9017544,16.0787695 65.6247104,16.227947 C64.6657119,15.9935252 63.7067278,15.9082822 62.7477293,15.9722154 C61.7887309,16.0361486 60.9256452,16.1107363 60.1584464,16.1959806 C59.9240246,15.9402477 59.6469847,15.8177108 59.3273186,15.8283663 C59.0076524,15.8390219 58.672008,15.8922988 58.3203752,15.9881986 C57.9687424,16.0840985 57.6224426,16.1799969 57.2814654,16.2758967 C56.9404882,16.3717966 56.6208268,16.398435 56.3224717,16.3558129 C56.0880499,16.5689236 55.7790439,16.7127712 55.3954445,16.78736 C55.0118451,16.8619488 54.6069407,16.9205534 54.1807192,16.9631755 C54.1594081,17.0697309 54.1807189,17.1443186 54.2446521,17.1869407 C54.3085853,17.2295629 54.3192407,17.3148059 54.2766185,17.4426724 C54.4257961,17.6344721 54.6282483,17.7676643 54.8839812,17.8422531 C55.1397141,17.9168418 55.4007709,17.9861018 55.6671594,18.050035 C55.9335478,18.1139683 56.1732939,18.204539 56.3864046,18.3217499 C56.5995154,18.4389608 56.7380353,18.6254299 56.8019686,18.8811629 C57.1855679,18.902474 57.5158847,19.0037 57.7929287,19.1848442 C58.0699727,19.3659884 58.304391,19.5844236 58.4961907,19.8401565 C58.6879904,20.0958895 58.8265103,20.3676016 58.9117546,20.6553012 C58.996999,20.9430007 59.0289651,21.2040575 59.007654,21.4384793 C59.0928983,21.6515901 59.183469,21.7368331 59.2793689,21.694211 C59.3752687,21.6515888 59.4871502,21.7048657 59.6150167,21.8540433 C59.700261,22.1737094 59.8973855,22.5093538 60.2063961,22.8609866 C60.5154067,23.2126194 60.7551527,23.5908853 60.9256414,23.9957958 C60.9682635,24.6351281 61.0055573,25.2105186 61.037524,25.7219844 C61.0694906,26.2334503 60.9789199,26.7342531 60.7658091,27.2244078 C60.4035208,28.1620952 59.8814072,29.0038702 59.1994527,29.7497578 C58.5174983,30.4956455 57.7449833,31.1509513 56.8818847,31.7156949 C56.0187861,32.2804384 55.1077512,32.7705858 54.1487527,33.1861518 C53.1897543,33.6017179 52.2414256,33.9480177 51.3037382,34.2250617 C51.2184938,34.2037506 51.1172678,34.2037506 51.0000568,34.2250617 C50.8828459,34.2463727 50.8562075,34.1824405 50.9201407,34.0332629 C50.728341,34.2037515 50.5099057,34.3103053 50.2648283,34.3529275 C50.019751,34.3955496 49.7533665,34.4115327 49.4656669,34.4008772 C49.1779674,34.3902216 48.8902722,34.3742386 48.6025726,34.3529275 C48.3148731,34.3316164 48.0325056,34.3422718 47.7554616,34.3848939 C47.5849729,34.2144053 47.43047,34.0439193 47.291948,33.8734306 C47.153426,33.702942 47.0415445,33.5004898 46.9563002,33.266068 C46.8497448,33.2447569 46.8017956,33.175497 46.8124511,33.058286 C46.8231067,32.9410751 46.7751575,32.8824705 46.6686021,32.8824705 C46.6686021,32.7972262 46.6792574,32.7332939 46.7005685,32.6906718 L46.7645014,32.562806 C46.8497457,32.4988727 46.8870396,32.4509235 46.876384,32.4189569 C46.8657285,32.3869903 46.8337624,32.3550242 46.7804847,32.3230575 C46.727207,32.2910909 46.6739301,32.2537971 46.6206524,32.2111749 C46.5673747,32.1685528 46.5513916,32.1152759 46.5727027,32.0513427 C46.6792581,31.859543 46.7165519,31.6304523 46.6845853,31.3640639 C46.6526187,31.0976754 46.6259802,30.8259632 46.6046692,30.5489192 C46.5833581,30.2718752 46.6046688,30.0108185 46.6686021,29.7657411 C46.7325353,29.5206637 46.9136767,29.3128838 47.2120318,29.1423952 C48.085786,29.2276395 48.9115778,29.185018 49.6894321,29.0145294 C50.4672865,28.8440407 51.2025076,28.6096224 51.8951176,28.3112673 C52.5877276,28.0129123 53.2483611,27.6879232 53.8770379,27.3362904 C54.5057146,26.9846577 55.1183989,26.6596686 55.7151091,26.3613135 C55.7790423,26.1482028 55.8802684,25.9670613 56.0187904,25.8178838 C56.1573124,25.6687062 56.30116,25.5248586 56.4503375,25.3863366 C56.5995151,25.2478146 56.738035,25.0986393 56.8659015,24.9388062 C56.9937679,24.7789732 57.0896663,24.5818487 57.1535996,24.3474268 C57.1749106,24.2621825 57.1749106,24.1982502 57.1535996,24.1556281 C57.1322885,24.1130059 57.1003224,24.0757121 57.0577002,24.0437455 C57.0150781,24.0117789 56.9724565,23.974485 56.9298344,23.9318629 C56.8872122,23.8892407 56.8659015,23.8253085 56.8659015,23.7400642 C56.8019682,23.7187531 56.7433637,23.6974423 56.690086,23.6761312 C56.6368083,23.6548202 56.5888591,23.6441648 56.5462369,23.6441648 C55.9921489,23.3671208 55.4061031,23.1327025 54.7880818,22.9409028 C54.1700606,22.7491031 53.647947,22.5359955 53.2217255,22.3015736 C52.9659926,22.4720623 52.7102635,22.5146838 52.4545306,22.4294395 C52.1987976,22.3441952 51.8897917,22.2589521 51.5275033,22.1737078 C50.6324381,22.1310857 49.7853355,22.0458426 48.9861701,21.9179762 C48.1870047,21.7901097 47.4144898,21.5663468 46.6686021,21.2466806 C46.6259799,21.1188141 46.572703,21.0069327 46.5087698,20.9110328 C46.4448366,20.815133 46.2956613,20.7884945 46.0612394,20.8311167 C45.9120619,20.6180059 45.7575589,20.4208814 45.5977258,20.2397372 C45.4378927,20.0585931 45.2940451,19.8508132 45.1661786,19.6163914 Z M64.3140857,16.0041818 C64.2927746,15.8336932 64.2554808,15.6791902 64.2022031,15.5406682 C64.1489254,15.4021462 64.0903208,15.2476432 64.0263876,15.0771546 C63.9198322,14.8214217 63.8239338,14.5443819 63.7386895,14.2460268 C63.6534452,13.9476717 63.6108236,13.5960442 63.6108236,13.1911337 C63.6534458,12.978023 63.7067227,12.82352 63.7706559,12.7276201 C63.8345892,12.6317203 63.8985214,12.5518049 63.9624547,12.4878717 L64.0903205,11.9124755 L64.5698173,11.9124755 C64.7403059,11.9337866 64.9161197,11.944442 65.0972638,11.944442 L65.6247104,11.944442 C66.4345313,11.944442 67.2656508,11.9124758 68.1180939,11.8485426 C68.970537,11.7846094 69.8442781,11.7100217 70.7393433,11.6247774 C71.7196528,11.4969109 72.7745353,11.4010125 73.9040224,11.3370793 C74.0105778,11.1026575 74.0798378,10.9534822 74.1118044,10.8895489 L74.223687,10.6657837 L74.575318,10.473985 C75.0654728,10.4526739 75.4064449,10.5112785 75.5982446,10.6498005 C75.7900443,10.7883225 75.9392196,10.9215147 76.045775,11.0493812 C76.599863,11.006759 77.164598,10.9481545 77.7399971,10.8735657 C78.3153962,10.7989769 78.9120974,10.7190616 79.5301186,10.6338173 C80.3825617,10.5272619 81.2456474,10.4207081 82.1194016,10.3141527 C82.9931557,10.2075973 83.845586,10.1543204 84.676718,10.1543204 C85.0390063,10.1543204 85.3799785,10.1649758 85.6996446,10.1862869 C86.0193108,10.207598 86.3283168,10.2395641 86.6266718,10.2821863 L87.0102693,10.5698844 C87.0955136,10.7190619 87.2020674,10.8575818 87.3299339,10.9854483 C87.4578003,11.1133147 87.6069756,11.2411793 87.7774642,11.3690458 C88.0971304,11.6247787 88.4114641,11.94444 88.7204747,12.3280394 C89.0294853,12.7116388 89.1413668,13.2763739 89.0561225,14.0222616 L88.8962902,14.3419261 C88.8110459,14.4271705 88.7044921,14.5124135 88.5766256,14.5976578 L88.2569611,15.0132217 L87.9053301,15.0132217 C87.6922193,15.0132217 87.5323886,15.0292048 87.4258332,15.0611714 C87.3192778,15.093138 87.1914133,15.1410872 87.0422358,15.2050205 C86.9569914,15.2476426 86.861093,15.2849364 86.7545377,15.316903 C86.6479823,15.3488697 86.5307731,15.3861635 86.4029066,15.4287856 C86.1684848,15.4074746 85.9873434,15.3968192 85.8594769,15.3968192 L85.4119465,15.3968192 C84.7726142,15.3968192 84.0800146,15.4394407 83.3341269,15.524685 C82.5882392,15.6099293 81.8636734,15.7058277 81.1604079,15.8123831 C80.648942,15.8763163 80.1587946,15.9349209 79.6899509,15.9881986 C79.2211072,16.0414763 78.7948921,16.0894255 78.4112927,16.1320477 C78.1981819,16.6861357 78.0063851,17.1762831 77.8358965,17.6025046 C77.6654079,18.0287262 77.4842664,18.4549413 77.2924667,18.8811629 C77.100667,19.3073844 76.9195256,19.7389273 76.749037,20.1758043 C76.5785484,20.6126814 76.4187177,21.0975011 76.2695401,21.6302781 C76.0138072,22.0138775 75.8006996,22.381488 75.630211,22.7331208 C75.4597224,23.0847536 75.3212025,23.4843303 75.2146471,23.9318629 C74.894981,24.2941512 74.6658903,24.6884002 74.5273683,25.1146218 C74.3888463,25.5408433 74.2663095,25.9031262 74.1597541,26.2014813 L74.0318882,26.6809781 C73.8827107,26.8301556 73.79214,26.9473648 73.7601734,27.0326091 C73.7282068,27.1178534 73.6696022,27.2137518 73.5843579,27.3203072 C73.5204246,27.5973512 73.4351816,27.8637357 73.3286262,28.1194686 C73.2860041,28.226024 73.2433825,28.3379055 73.2007604,28.4551164 C73.1581382,28.5723273 73.1474829,28.662898 73.1687939,28.7268313 C73.1261718,28.9612531 73.0622395,29.1423946 72.9769952,29.270261 C72.9769952,29.3981275 72.9663398,29.525992 72.9450287,29.6538585 L72.8810958,30.037456 C72.8384737,30.1866335 72.8065075,30.3198257 72.7851965,30.4370366 C72.7638854,30.5542476 72.7745408,30.6661291 72.8171629,30.7726844 L73.0089617,31.0284161 C73.0728949,31.1136604 73.1261718,31.2202142 73.1687939,31.3480806 C73.2114161,31.3907028 73.264693,31.4226689 73.3286262,31.44398 C73.3925594,31.4652911 73.4458363,31.4972572 73.4884585,31.5398794 C73.6589471,31.6890569 73.8187778,31.7742999 73.9679553,31.795611 L74.2876199,32.1792085 C74.4154864,32.9464073 74.2982772,33.5431085 73.9359889,33.96933 C73.5523895,34.4594848 72.9130668,34.7045585 72.0180015,34.7045585 L71.5704711,34.672592 C71.4212936,34.5234145 71.3360506,34.4275161 71.3147395,34.3848939 C71.1229398,34.2996496 70.9631091,34.2303897 70.8352427,34.177112 C70.7073762,34.1238343 70.590167,34.0226082 70.4836116,33.8734306 C70.4409895,33.8308085 70.3877126,33.80417 70.3237794,33.7935145 C70.2598461,33.782859 70.2065692,33.7562205 70.1639471,33.7135984 C69.9508363,33.6496651 69.7803503,33.5750775 69.6524838,33.4898332 L69.3008528,33.2980344 C69.3221639,33.0849237 69.3328192,32.9357484 69.3328192,32.8505041 C69.1623306,32.6160822 69.0291384,32.3603531 68.9332385,32.0833091 C68.8373387,31.8062651 68.7574234,31.5185699 68.6934901,31.2202148 C68.6295569,30.985793 68.5709523,30.7726854 68.5176746,30.5808857 C68.4643969,30.389086 68.3844816,30.2185999 68.2779262,30.0694224 C68.235304,28.577647 68.373824,27.32564 68.6934901,26.3133638 C69.0131563,25.3010877 69.3647838,24.3154652 69.7483832,23.3564667 C69.9614939,22.8450008 70.1639461,22.3228873 70.3557458,21.7901104 C70.5475455,21.2573334 70.7180316,20.7139091 70.8672091,20.1598211 L71.2188401,19.8081901 C71.3680177,19.6803236 71.4639161,19.605736 71.5065382,19.5844249 C71.5065382,19.3073809 71.5598151,19.0356687 71.6663705,18.7692803 C71.7729259,18.5028918 71.8901351,18.2311797 72.0180015,17.9541357 C72.1032458,17.783647 72.1831612,17.613161 72.2577499,17.4426724 C72.3323387,17.2721837 72.3802879,17.1230084 72.401599,16.995142 C72.2524215,16.995142 72.1192292,17.0004697 72.0020183,17.0111252 C71.8848074,17.0217807 71.7622705,17.0377638 71.6344041,17.0590749 C71.3573601,17.1230081 71.0909756,17.1549743 70.8352427,17.1549743 C70.643443,17.1549743 70.504923,17.1443189 70.4196787,17.1230078 C70.2491901,17.2082521 70.0893594,17.2562013 69.9401819,17.2668569 C69.7910044,17.2775124 69.6418291,17.2828401 69.4926515,17.2828401 L68.7254566,17.2828401 C68.4697237,17.2828401 68.2672715,17.3148062 68.1180939,17.3787394 L66.4878047,17.3787394 C66.3173161,17.3787394 66.1255192,17.3627564 65.9124085,17.3307898 C65.6992977,17.2988232 65.4755347,17.2189078 65.2411129,17.0910413 L65.0173477,16.8353097 C64.8894812,16.6008879 64.7722721,16.4730233 64.6657167,16.4517122 L64.3140857,16.3558129 L64.3140857,16.0041818 Z M90.2069149,34.1611288 C89.2692275,34.2889952 88.4167972,34.2463737 87.6495984,34.0332629 C86.8823996,33.8201522 86.1951277,33.4898354 85.587762,33.0423028 C84.9803963,32.5947702 84.4582828,32.0620012 84.0214057,31.44398 C83.5845286,30.8259588 83.2275734,30.1653253 82.9505294,29.4620597 C82.7587297,28.0129065 82.8120066,26.6969672 83.1103617,25.5142025 C83.4087168,24.3314377 83.8455873,23.2392614 84.4209864,22.2376407 C84.9963855,21.2360201 85.6516913,20.2983468 86.3869234,19.4245926 C87.1221556,18.5508385 87.8307383,17.7090635 88.5126927,16.8992426 C88.6618703,16.9631758 88.7844071,16.9631758 88.880307,16.8992426 C88.9762068,16.8353094 89.0614498,16.7500664 89.1360386,16.643511 C89.2106274,16.5369556 89.2958704,16.4304018 89.3917703,16.3238464 C89.4876701,16.217291 89.5995516,16.1427034 89.727418,16.1000812 C89.8126624,15.9082815 89.9245438,15.7484508 90.0630658,15.6205844 C90.2015878,15.4927179 90.3507631,15.3701811 90.5105962,15.2529701 C90.6704293,15.1357592 90.8196046,15.0132224 90.9581266,14.8853559 C91.0966486,14.7574894 91.2191855,14.5976588 91.3257408,14.4058591 C91.5388516,14.3632369 91.7253207,14.2886493 91.8851538,14.1820939 C92.0449869,14.0755385 92.1941622,13.9583293 92.3326842,13.8304629 C92.4712062,13.7025964 92.6150538,13.5853872 92.7642313,13.4788318 C92.9134089,13.3722765 93.0945503,13.2870334 93.3076611,13.2231002 L93.3076611,12.8075363 C93.7765048,12.5944255 94.1174769,12.3600072 94.3305877,12.1042742 C94.5436985,11.8485413 94.7994275,11.5182246 95.0977826,11.1133141 C95.3322045,11.092003 95.5186736,11.0813477 95.6571956,11.0813477 C95.7957176,11.0813477 96.0141529,11.0600369 96.3125079,11.0174147 C96.5043076,10.6551264 96.6854491,10.388742 96.8559377,10.2182533 C97.0264263,10.0477647 97.2715,9.85596791 97.5911662,9.64285714 C97.9108323,9.81334576 98.2518045,9.91457186 98.6140928,9.94653847 C98.9763811,9.97850509 99.3066978,10.1436635 99.6050529,10.4420185 C99.626364,10.6977515 99.7009516,10.894876 99.8288181,11.033398 C99.9566845,11.17192 100.095204,11.2997845 100.244382,11.4169954 C100.39356,11.5342064 100.542735,11.6567432 100.691912,11.7846097 C100.84109,11.9124761 100.936988,12.0936176 100.97961,12.3280394 C101.086166,12.3280394 101.155426,12.3067287 101.187392,12.2641065 C101.219359,12.2214844 101.288619,12.210829 101.395174,12.2321401 C101.437797,12.4026287 101.480418,12.5411486 101.52304,12.647704 C101.565662,12.7542594 101.613612,12.8501578 101.666889,12.9354021 C101.720167,13.0206464 101.773444,13.1165448 101.826722,13.2231002 C101.879999,13.3296556 101.927948,13.4575201 101.970571,13.6066977 C101.864015,13.8624306 101.768117,14.1341427 101.682873,14.4218423 C101.597628,14.7095418 101.427142,14.9066663 101.171409,15.0132217 C101.171409,15.1837103 101.235342,15.2742811 101.363208,15.2849366 C101.491074,15.2955921 101.565662,15.3755075 101.586973,15.524685 C101.608284,15.7164847 101.576318,15.8763154 101.491074,16.0041818 C102.087784,17.0058025 102.631208,18.0553573 103.121363,19.1528777 C103.611518,20.2503982 104.165597,21.299953 104.783619,22.3015736 C104.740997,22.5999287 104.75698,22.8929516 104.831568,23.1806512 C104.906157,23.4683507 105.002056,23.7507183 105.119267,24.0277623 C105.236477,24.3048063 105.348359,24.5818461 105.454914,24.8588901 C105.56147,25.1359341 105.636057,25.412974 105.678679,25.690018 C105.721302,26.0523063 105.721302,26.4412276 105.678679,26.8567936 C105.636057,27.2723596 105.550814,27.6719363 105.422948,28.0555357 C105.295081,28.4391351 105.124595,28.7960903 104.911485,29.126412 C104.698374,29.4567337 104.4533,29.7071351 104.176256,29.8776237 C103.835279,30.3038452 103.409064,30.650145 102.897598,30.9165335 C102.386132,31.182922 101.917295,31.4972556 101.491074,31.8595439 C101.192719,32.0300326 100.873057,32.1525694 100.53208,32.2271582 C100.191103,32.3017469 99.8394754,32.3816623 99.4771871,32.4669066 C99.2001431,32.6373952 98.8698263,32.8025536 98.4862269,32.9623867 C98.1026276,33.1222197 97.7083785,33.2660674 97.3034681,33.3939338 C96.8985576,33.5218003 96.4936532,33.6230264 96.0887428,33.6976151 C95.6838323,33.7722039 95.3215494,33.788187 95.0018833,33.7455648 C94.2346845,34.0226088 93.488808,34.2144056 92.7642313,34.320961 C92.0396547,34.4275164 91.1872244,34.3742395 90.2069149,34.1611288 Z M90.6224788,22.5253388 C90.409368,23.0154936 90.1589666,23.4576918 89.8712671,23.8519468 C89.5835676,24.2462017 89.3012,24.6457784 89.024156,25.0506888 C88.747112,25.4555993 88.507366,25.8871421 88.3049108,26.3453303 C88.1024555,26.8035185 87.9905741,27.3416151 87.969263,27.9596363 C88.3954845,28.3219246 88.901615,28.5403599 89.4876696,28.6149487 C90.0737242,28.6895374 90.6757531,28.7001928 91.2937744,28.6469151 C91.9117956,28.5936374 92.5298076,28.5137221 93.1478288,28.4071667 C93.7658501,28.3006113 94.3199297,28.2473344 94.8100845,28.2473344 C94.8100845,28.0555347 94.8953276,27.9596363 95.0658162,27.9596363 C95.9608814,27.874392 96.7920009,27.6239906 97.5591997,27.2084246 C98.3263985,26.7928586 99.1255519,26.3719711 99.9566839,25.9457496 C100.063239,25.6900167 100.201759,25.4662537 100.372248,25.274454 C100.542736,25.0826543 100.638635,24.8056145 100.659946,24.4433262 C100.553391,24.2515265 100.484131,24.0916958 100.452164,23.9638293 C100.420197,23.8359629 100.404214,23.6441661 100.404214,23.3884331 C99.8501263,22.6212344 99.3706342,21.7847871 98.9657238,20.8790664 C98.5608133,19.9733456 98.0919766,19.1155876 97.5591997,18.3057667 C97.5165776,18.4123221 97.4313345,18.5188758 97.3034681,18.6254312 C97.1756016,18.7319866 97.0370817,18.7106759 96.8879041,18.5614983 C96.8239709,18.7746091 96.7280725,18.9184567 96.600206,18.9930455 C96.4723396,19.0676342 96.328492,19.1049281 96.1686589,19.1049281 C96.0088258,19.1049281 95.8489951,19.0729619 95.6891621,19.0090287 C95.529329,18.9450955 95.3854814,18.8598524 95.2576149,18.753297 C94.5117272,19.3500072 93.7711784,19.9253977 93.0359462,20.4794857 C92.3007141,21.0335737 91.6347529,21.6835518 91.0380427,22.4294395 C90.9314873,22.4933727 90.8675551,22.5146835 90.846244,22.4933724 C90.8249329,22.4720613 90.7503453,22.4827167 90.6224788,22.5253388 Z" id="RNSTO" fill="#21D3C4" transform="translate(53.605323, 22.417601) rotate(-10.000000) translate(-53.605323, -22.417601) "></path>
                </g>
            </g>
        </g>
    </g>
</svg>