<?xml version="1.0" encoding="UTF-8"?>
<svg width="100px" height="100px" viewBox="0 0 100 100" version="1.1" xmlns="http://www.w3.org/2000/svg" xmlns:xlink="http://www.w3.org/1999/xlink">
    <!-- Generator: Sketch 46.2 (44496) - http://www.bohemiancoding.com/sketch -->
    <title>research</title>
    <desc>Created with Sketch.</desc>
    <defs></defs>
    <g id="Page-1-Copy" stroke="none" stroke-width="1" fill="none" fill-rule="evenodd">
        <g id="Desktop-HD" transform="translate(-671.000000, -2241.000000)" fill-rule="nonzero" fill="#000000">
            <g id="trayectoria" transform="translate(0.000000, 1623.000000)">
                <g id="Group-9">
                    <g id="Group-8" transform="translate(239.000000, 270.000000)">
                        <g id="timeline-item" transform="translate(392.000000, 306.000000)">
                            <g id="tl-icon" transform="translate(0.000000, 2.000000)">
                                <g id="research" transform="translate(40.000000, 40.000000)">
                                    <path d="M82.1193548,70.1612903 L85.0112903,67.2693548 L82.7306452,64.9887097 L79.8387097,67.8806452 L76.7951613,64.8370968 C79.2403226,60.4354839 80.6451613,55.3806452 80.6451613,50 C80.6451613,49.5403226 80.5967742,49.0935484 80.5758065,48.6387097 C88.1548387,46.8564516 93.5483871,40.1467742 93.5483871,32.2580645 L90.3225806,32.2580645 C90.3225806,38.4870968 86.1645161,43.8145161 80.2612903,45.4016129 C78.0306452,30.6822581 65.3306452,19.3548387 50,19.3548387 C49.5403226,19.3548387 49.0935484,19.4032258 48.6387097,19.4241935 C46.8564516,11.8451613 40.1467742,6.4516129 32.2580645,6.4516129 L32.2580645,9.67741935 C38.4870968,9.67741935 43.8145161,13.8354839 45.4016129,19.7387097 C30.6822581,21.9693548 19.3548387,34.6693548 19.3548387,50 C19.3548387,50.4596774 19.4032258,50.9064516 19.4241935,51.3612903 C11.8451613,53.1435484 6.4516129,59.8532258 6.4516129,67.7419355 L9.67741935,67.7419355 C9.67741935,61.5129032 13.8354839,56.1854839 19.7387097,54.5983871 C21.9693548,69.3177419 34.6693548,80.6451613 50,80.6451613 C55.3806452,80.6451613 60.4354839,79.2403226 64.8354839,76.7951613 L67.8790323,79.8387097 L64.9870968,82.7306452 L67.2677419,85.0112903 L70.1596774,82.1193548 L85.5645161,97.5241935 C87.1612903,99.1209677 89.2854839,100 91.5435484,100 C96.2064516,100 100,96.2064516 100,91.5451613 C100,89.2870968 99.1209677,87.1629032 97.5241935,85.566129 L82.1193548,70.1612903 Z M50,22.5806452 C63.7580645,22.5806452 75.1467742,32.7741935 77.0935484,46 L73.9145161,46.5290323 C72.2241935,34.8306452 62.1596774,25.8064516 50,25.8064516 C49.9177419,25.8064516 49.8370968,25.8177419 49.7548387,25.8193548 L49.2225806,22.6209677 C49.483871,22.6129032 49.7370968,22.5806452 50,22.5806452 Z M50,29.0322581 C61.5612903,29.0322581 70.9677419,38.4387097 70.9677419,50 C70.9677419,61.5612903 61.5612903,70.9677419 50,70.9677419 C38.4387097,70.9677419 29.0322581,61.5612903 29.0322581,50 C29.0322581,38.4387097 38.4387097,29.0322581 50,29.0322581 Z M22.5806452,50 C22.5806452,36.2419355 32.7741935,24.8532258 46,22.9064516 L46.5290323,26.0854839 C34.8306452,27.7758065 25.8064516,37.8403226 25.8064516,50 C25.8064516,50.0822581 25.8177419,50.1629032 25.8193548,50.2451613 L22.6209677,50.7774194 C22.6129032,50.516129 22.5806452,50.2629032 22.5806452,50 Z M50,77.4193548 C36.2419355,77.4193548 24.8532258,67.2258065 22.9064516,54 L26.0854839,53.4709677 C27.7758065,65.1693548 37.8403226,74.1935484 50,74.1935484 C63.3403226,74.1935484 74.1935484,63.3403226 74.1935484,50 C74.1935484,49.9177419 74.1822581,49.8370968 74.1806452,49.7548387 L77.3790323,49.2225806 C77.3870968,49.483871 77.4193548,49.7370968 77.4193548,50 C77.4193548,65.1193548 65.1193548,77.4193548 50,77.4193548 Z M67.6290323,75.0258065 C70.4967742,73 73,70.4967742 75.0258065,67.6290323 L77.5580645,70.1612903 L70.1612903,77.5580645 L67.6290323,75.0258065 Z M91.5451613,96.7741935 C90.1483871,96.7741935 88.833871,96.2306452 87.8467742,95.2435484 L72.4419355,79.8387097 L79.8387097,72.4419355 L95.2435484,87.8467742 C96.2306452,88.833871 96.7741935,90.1483871 96.7741935,91.5451613 C96.7741935,94.4290323 94.4290323,96.7741935 91.5451613,96.7741935 Z" id="Shape"></path>
                                    <path d="M85.483871,29.0322581 C93.4887097,29.0322581 100,22.5209677 100,14.516129 C100,6.51129032 93.4887097,0 85.483871,0 C77.4790323,0 70.9677419,6.51129032 70.9677419,14.516129 C70.9677419,22.5209677 77.4790323,29.0322581 85.483871,29.0322581 Z M90.3225806,24.7016129 C88.8532258,25.4016129 87.216129,25.8064516 85.483871,25.8064516 C83.7516129,25.8064516 82.1145161,25.4016129 80.6451613,24.7016129 L80.6451613,22.5806452 C80.6451613,19.9129032 82.816129,17.7419355 85.483871,17.7419355 C88.1516129,17.7419355 90.3225806,19.9129032 90.3225806,22.5806452 L90.3225806,24.7016129 Z M82.2580645,11.2903226 C82.2580645,9.51129032 83.7048387,8.06451613 85.483871,8.06451613 C87.2629032,8.06451613 88.7096774,9.51129032 88.7096774,11.2903226 C88.7096774,13.0693548 87.2629032,14.516129 85.483871,14.516129 C83.7048387,14.516129 82.2580645,13.0693548 82.2580645,11.2903226 Z M85.483871,3.22580645 C91.7080645,3.22580645 96.7741935,8.29193548 96.7741935,14.516129 C96.7741935,17.5919355 95.533871,20.3806452 93.5322581,22.4193548 C93.4774194,19.7080645 92.0919355,17.316129 89.9903226,15.8951613 C91.1870968,14.7241935 91.9354839,13.0951613 91.9354839,11.2903226 C91.9354839,7.73225806 89.0419355,4.83870968 85.483871,4.83870968 C81.9258065,4.83870968 79.0322581,7.73225806 79.0322581,11.2903226 C79.0322581,13.0951613 79.7806452,14.7241935 80.9774194,15.8951613 C78.8741935,17.3177419 77.4887097,19.7080645 77.4354839,22.4193548 C75.433871,20.3806452 74.1935484,17.5919355 74.1935484,14.516129 C74.1935484,8.29193548 79.2596774,3.22580645 85.483871,3.22580645 Z" id="Shape"></path>
                                    <path d="M14.516129,29.0322581 C22.5209677,29.0322581 29.0322581,22.5209677 29.0322581,14.516129 C29.0322581,6.51129032 22.5209677,0 14.516129,0 C6.51129032,0 0,6.51129032 0,14.516129 C0,22.5209677 6.51129032,29.0322581 14.516129,29.0322581 Z M19.3548387,24.7016129 C17.8854839,25.4016129 16.2483871,25.8064516 14.516129,25.8064516 C12.783871,25.8064516 11.1467742,25.4016129 9.67741935,24.7016129 L9.67741935,22.5806452 C9.67741935,19.9129032 11.8483871,17.7419355 14.516129,17.7419355 C17.183871,17.7419355 19.3548387,19.9129032 19.3548387,22.5806452 L19.3548387,24.7016129 Z M11.2903226,11.2903226 C11.2903226,9.51129032 12.7370968,8.06451613 14.516129,8.06451613 C16.2951613,8.06451613 17.7419355,9.51129032 17.7419355,11.2903226 C17.7419355,13.0693548 16.2951613,14.516129 14.516129,14.516129 C12.7370968,14.516129 11.2903226,13.0693548 11.2903226,11.2903226 Z M14.516129,3.22580645 C20.7403226,3.22580645 25.8064516,8.29193548 25.8064516,14.516129 C25.8064516,17.5919355 24.566129,20.3806452 22.5645161,22.4193548 C22.5096774,19.7080645 21.1241935,17.316129 19.0225806,15.8951613 C20.2193548,14.7241935 20.9677419,13.0951613 20.9677419,11.2903226 C20.9677419,7.73225806 18.0741935,4.83870968 14.516129,4.83870968 C10.9580645,4.83870968 8.06451613,7.73225806 8.06451613,11.2903226 C8.06451613,13.0951613 8.81290323,14.7241935 10.0096774,15.8951613 C7.90806452,17.3177419 6.52258065,19.7080645 6.46774194,22.4193548 C4.46612903,20.3806452 3.22580645,17.5919355 3.22580645,14.516129 C3.22580645,8.29193548 8.29193548,3.22580645 14.516129,3.22580645 Z" id="Shape"></path>
                                    <path d="M14.516129,70.9677419 C6.51129032,70.9677419 0,77.4790323 0,85.483871 C0,93.4887097 6.51129032,100 14.516129,100 C22.5209677,100 29.0322581,93.4887097 29.0322581,85.483871 C29.0322581,77.4790323 22.5209677,70.9677419 14.516129,70.9677419 Z M19.3548387,95.6693548 C17.8854839,96.3693548 16.2483871,96.7741935 14.516129,96.7741935 C12.783871,96.7741935 11.1467742,96.3693548 9.67741935,95.6693548 L9.67741935,93.5483871 C9.67741935,90.8806452 11.8483871,88.7096774 14.516129,88.7096774 C17.183871,88.7096774 19.3548387,90.8806452 19.3548387,93.5483871 L19.3548387,95.6693548 Z M11.2903226,82.2580645 C11.2903226,80.4790323 12.7370968,79.0322581 14.516129,79.0322581 C16.2951613,79.0322581 17.7419355,80.4790323 17.7419355,82.2580645 C17.7419355,84.0370968 16.2951613,85.483871 14.516129,85.483871 C12.7370968,85.483871 11.2903226,84.0370968 11.2903226,82.2580645 Z M22.5645161,93.3870968 C22.5096774,90.6758065 21.1241935,88.283871 19.0225806,86.8629032 C20.2193548,85.6919355 20.9677419,84.0629032 20.9677419,82.2580645 C20.9677419,78.7 18.0741935,75.8064516 14.516129,75.8064516 C10.9580645,75.8064516 8.06451613,78.7 8.06451613,82.2580645 C8.06451613,84.0629032 8.81290323,85.6919355 10.0096774,86.8629032 C7.90806452,88.2854839 6.52258065,90.6758065 6.46774194,93.3870968 C4.46612903,91.3483871 3.22580645,88.5596774 3.22580645,85.483871 C3.22580645,79.2596774 8.29193548,74.1935484 14.516129,74.1935484 C20.7403226,74.1935484 25.8064516,79.2596774 25.8064516,85.483871 C25.8064516,88.5596774 24.566129,91.3483871 22.5645161,93.3870968 Z" id="Shape"></path>
                                    <path d="M32.2580645,46.7741935 L32.2580645,54.8387097 L32.2580645,56.4516129 L32.2580645,58.0645161 L67.7419355,58.0645161 L67.7419355,56.4516129 L67.7419355,54.8387097 L67.7419355,40.3225806 L58.0645161,40.3225806 L58.0645161,54.8387097 L54.8387097,54.8387097 L54.8387097,33.8709677 L45.1612903,33.8709677 L45.1612903,54.8387097 L41.9354839,54.8387097 L41.9354839,46.7741935 L32.2580645,46.7741935 Z M61.2903226,43.5483871 L64.516129,43.5483871 L64.516129,54.8387097 L61.2903226,54.8387097 L61.2903226,43.5483871 Z M48.3870968,37.0967742 L51.6129032,37.0967742 L51.6129032,54.8387097 L48.3870968,54.8387097 L48.3870968,37.0967742 Z M38.7096774,54.8387097 L35.483871,54.8387097 L35.483871,50 L38.7096774,50 L38.7096774,54.8387097 Z" id="Shape"></path>
                                </g>
                            </g>
                        </g>
                    </g>
                </g>
            </g>
        </g>
    </g>
</svg>