<?xml version="1.0" encoding="UTF-8"?>
<svg width="98px" height="96px" viewBox="0 0 98 96" version="1.1" xmlns="http://www.w3.org/2000/svg" xmlns:xlink="http://www.w3.org/1999/xlink">
    <!-- Generator: Sketch 46.2 (44496) - http://www.bohemiancoding.com/sketch -->
    <title>signing-letters</title>
    <desc>Created with Sketch.</desc>
    <defs></defs>
    <g id="Page-1-Copy" stroke="none" stroke-width="1" fill="none" fill-rule="evenodd">
        <g id="Desktop-HD" transform="translate(-672.000000, -2535.000000)" fill-rule="nonzero" fill="#231F20">
            <g id="trayectoria" transform="translate(0.000000, 1623.000000)">
                <g id="Group-9">
                    <g id="Group-8" transform="translate(239.000000, 270.000000)">
                        <g id="timeline-item-copy-2" transform="translate(0.000000, 596.000000)">
                            <g id="tl-icon" transform="translate(392.000000, 2.000000)">
                                <g id="signing-letters" transform="translate(41.000000, 44.000000)">
                                    <path d="M33.2545455,62.312987 C33.2181818,62.2402597 33.2038961,62.1571429 33.1623377,62.087013 C32.3441558,60.6649351 30.8948052,60.2324675 30.4090909,60.1246753 C29.8519481,59.9350649 28.3012987,59.5922078 24.3649351,59.5922078 C24.3545455,59.5922078 24.3454545,59.5922078 24.3376623,59.5922078 C18.4077922,59.5935065 17.2207792,62.5116883 17.1272727,62.7844156 L13.4597403,71.8480519 C11.9571429,73.1012987 10.7402597,74.8103896 10.0545455,77.0090909 C8.18831169,82.2844156 3.78181818,93.5766234 3.73766234,93.6896104 C3.47662338,94.3584416 3.80779221,95.1103896 4.47532468,95.3714286 C5.14025974,95.6311688 5.8961039,95.3025974 6.15714286,94.6337662 C6.1974026,94.5298701 9.82857143,85.225974 11.9181818,79.4896104 C13.5103896,77.8935065 16.9597403,76.7038961 19.9896104,76.9181818 C22.1818182,77.074026 24.1025974,77.9480519 24.8857143,79.1467532 C25.1168831,79.5 25.2415584,79.8844156 25.2857143,80.2987013 C23.4038961,85.9961039 21.0155844,93.6831169 20.987013,93.7766234 C20.774026,94.461039 21.1571429,95.1896104 21.8415584,95.4012987 C21.9714286,95.4415584 22.1,95.4597403 22.2272727,95.4597403 C22.7818182,95.4597403 23.2948052,95.1025974 23.4675325,94.5454545 C23.5025974,94.4324675 27,83.174026 28.8701299,77.7974026 C29.087013,77.0376623 29.1428571,76.3012987 29.1038961,75.5896104 C29.1597403,75.5896104 29.2051948,75.5935065 29.2623377,75.5935065 C31.8662338,75.5935065 36.2844156,74.9701299 37.3636364,70.8922078 C38.1909091,67.774026 38.787013,65.5194805 37.538961,63.9051948 C36.7532468,62.8922078 35.4116883,62.3935065 33.2545455,62.312987 Z M20.1272727,74.9766234 C17.8441558,74.8155844 15.2428571,75.3363636 13.1337662,76.3493506 C15.3155844,72.1155844 20.1272727,71.3246753 23.187013,72.238961 C24.1753247,72.5350649 27.3220779,73.7558442 26.3935065,77.0142857 C26.3233766,77.2142857 26.2480519,77.4376623 26.174026,77.6532468 C24.7376623,75.912987 22.1701299,75.1207792 20.1272727,74.9766234 Z M34.8428571,70.2636364 C34.0974026,73.0779221 29.9350649,73.074026 28.3324675,72.9636364 C27.4766234,71.5064935 25.9714286,70.3584416 23.9324675,69.7493506 C21.7402597,69.0935065 19.3051948,69.1298701 17.0636364,69.861039 L19.5337662,63.7558442 C19.5415584,63.7402597 20.3181818,62.1896104 24.3363636,62.1883117 C24.3467532,62.1883117 24.3558442,62.1883117 24.3636364,62.1883117 C28.3649351,62.1883117 29.4792208,62.5493506 29.4948052,62.5493506 L29.4948052,62.5493506 C29.5935065,62.5974026 29.7194805,62.6350649 29.8272727,62.6558442 C29.8350649,62.6571429 30.5909091,62.8090909 30.9168831,63.3948052 C31.2727273,64.0350649 31.0246753,65.0116883 30.7532468,65.7181818 C30.4961039,66.3883117 30.8311688,67.138961 31.5,67.3961039 C32.1688312,67.6519481 32.9220779,67.3181818 33.1779221,66.6493506 C33.4103896,66.0428571 33.5350649,65.4792208 33.6103896,64.9350649 C34.8818182,65.0363636 35.3402597,65.3116883 35.4831169,65.4948052 C35.9467532,66.0948052 35.4142857,68.1025974 34.8428571,70.2636364 Z M97.7675325,80.4519481 L88.0857143,44.9480519 C87.9311688,44.3831169 87.4181818,43.9909091 86.8324675,43.9909091 L53.9532468,43.9909091 C53.3675325,43.9909091 52.8545455,44.3831169 52.7,44.9480519 L43.0181818,80.4519481 C42.9116883,80.8428571 42.9935065,81.261039 43.238961,81.5818182 C43.4844156,81.9038961 43.8662338,82.0922078 44.2714286,82.0922078 L71.4324675,82.0922078 C73.2441558,87.6233766 75.3688312,94.4597403 75.3961039,94.5467532 C75.5688312,95.1038961 76.0818182,95.461039 76.6363636,95.461039 C76.7636364,95.461039 76.8935065,95.4415584 77.0220779,95.4025974 C77.7064935,95.1896104 78.0896104,94.4623377 77.8766234,93.7779221 C77.8467532,93.6844156 75.4480519,85.9623377 73.5779221,80.3012987 C73.6220779,79.887013 73.7467532,79.5025974 73.9779221,79.1480519 C74.761039,77.9493506 76.6818182,77.0753247 78.8753247,76.9194805 C81.8909091,76.7051948 85.3480519,77.8961039 86.9441558,79.4922078 C89.0220779,85.1909091 92.6662338,94.5311688 92.7064935,94.6350649 C92.9675325,95.3038961 93.7220779,95.6324675 94.3883117,95.3727273 C95.0571429,95.1116883 95.3883117,94.3584416 95.125974,93.6909091 C95.0935065,93.6064935 92.6818182,87.4272727 90.6766234,82.0935065 L96.5142857,82.0935065 C96.9194805,82.0935065 97.3,81.9038961 97.5467532,81.5831169 C97.7909091,81.2597403 97.874026,80.8415584 97.7675325,80.4519481 Z M65.2506494,64.9324675 C65.325974,65.4766234 65.4493506,66.0415584 65.6831169,66.6493506 C65.6896104,66.6662338 65.7038961,66.6766234 65.7116883,66.6935065 C65.8532468,67.0480519 66.1298701,67.3454545 66.5246753,67.4649351 C66.6506494,67.5025974 66.7753247,67.5207792 66.9,67.5207792 C67.4584416,67.5207792 67.974026,67.1584416 68.1428571,66.5974026 L69.361039,62.561039 C69.6233766,62.4844156 70.8714286,62.1896104 74.5,62.1896104 C74.5077922,62.1896104 74.5181818,62.1896104 74.5272727,62.1896104 C78.5467532,62.1909091 79.3220779,63.7402597 79.3298701,63.7584416 L81.8,69.8649351 C79.5584416,69.1298701 77.1233766,69.0948052 74.9311688,69.7506494 C72.8922078,70.3597403 71.387013,71.5077922 70.5350649,72.9727273 C68.9337662,73.1012987 64.6727273,73.1662338 64.0324675,70.3116883 L63.8727273,69.6077922 C63.4454545,67.7363636 63.0415584,65.9675325 63.4558442,65.4532468 C63.5636364,65.3142857 63.9623377,65.0324675 65.2506494,64.9324675 Z M78.7363636,74.9766234 C76.6909091,75.1220779 74.1233766,75.9142857 72.687013,77.6545455 C72.6220779,77.4636364 72.5532468,77.2623377 72.4909091,77.0857143 C71.5402597,73.7571429 74.6857143,72.5350649 75.674026,72.2402597 C78.7246753,71.3272727 83.5168831,72.1116883 85.7194805,76.3454545 C83.6116883,75.3324675 81.012987,74.8116883 78.7363636,74.9766234 Z M89.7077922,79.4948052 C89.3779221,78.6 89.0753247,77.7675325 88.8233766,77.0545455 C88.1324675,74.8402597 86.9116883,73.1207792 85.4077922,71.861039 L81.7571429,62.8428571 C81.6415584,62.5103896 80.4545455,59.5922078 74.5246753,59.5909091 C74.5155844,59.5909091 74.5064935,59.5909091 74.4974026,59.5909091 C72.5194805,59.5909091 71.1454545,59.6779221 70.1948052,59.7883117 L72.2792208,52.8792208 C72.487013,52.1922078 72.0974026,51.4675325 71.4116883,51.2597403 C70.7220779,51.0558442 70,51.4415584 69.7935065,52.1272727 L67.238961,60.5909091 C66.7012987,60.8896104 66.1168831,61.3558442 65.6961039,62.0857143 C65.6571429,62.1545455 65.6415584,62.2337662 65.6064935,62.3051948 C64.0415584,62.3545455 62.3727273,62.6402597 61.4220779,63.8285714 C60.225974,65.3220779 60.6909091,67.3623377 61.3350649,70.1857143 L61.4935065,70.8805195 C62.4103896,74.961039 66.6714286,75.6246753 69.3467532,75.6246753 C69.4987013,75.6246753 69.6272727,75.6181818 69.7688312,75.6142857 C69.7311688,76.3376623 69.7896104,77.0883117 70.012987,77.8675325 C70.1844156,78.3584416 70.3727273,78.9142857 70.5675325,79.4935065 L45.9714286,79.4935065 L54.9441558,46.587013 L85.8402597,46.587013 L94.812987,79.4935065 L89.7077922,79.4935065 L89.7077922,79.4948052 Z M1.5974026,33.7675325 L45.1350649,33.7675325 C45.1441558,33.7688312 45.1545455,33.7675325 45.161039,33.7675325 C45.8792208,33.7675325 46.4597403,33.1857143 46.4597403,32.4688312 C46.4597403,32.1675325 46.3571429,31.8896104 46.1844156,31.6688312 L38.2220779,16.174026 C37.9987013,15.7415584 37.5532468,15.4688312 37.0662338,15.4688312 L9.66623377,15.4688312 C9.17922078,15.4688312 8.73376623,15.7402597 8.51038961,16.174026 L0.441558442,31.8753247 C0.235064935,32.2779221 0.251948052,32.7597403 0.488311688,33.1454545 C0.724675325,33.5311688 1.14415584,33.7675325 1.5974026,33.7675325 Z M10.4584416,18.0662338 L36.274026,18.0662338 L43.0077922,31.1701299 L3.72597403,31.1701299 L10.4584416,18.0662338 Z M0.298701299,35.8493506 C0.298701299,35.1324675 0.879220779,34.5506494 1.5974026,34.5506494 L45.1350649,34.5506494 C45.8532468,34.5506494 46.4337662,35.1324675 46.4337662,35.8493506 C46.4337662,36.5662338 45.8532468,37.1480519 45.1350649,37.1480519 L1.5974026,37.1480519 C0.879220779,37.1480519 0.298701299,36.5662338 0.298701299,35.8493506 Z M0.298701299,39.2298701 C0.298701299,38.512987 0.879220779,37.9311688 1.5974026,37.9311688 L45.1350649,37.9311688 C45.8532468,37.9311688 46.4337662,38.512987 46.4337662,39.2298701 C46.4337662,39.9467532 45.8532468,40.5285714 45.1350649,40.5285714 L1.5974026,40.5285714 C0.879220779,40.5285714 0.298701299,39.9480519 0.298701299,39.2298701 Z M0.298701299,42.6103896 C0.298701299,41.8935065 0.879220779,41.3116883 1.5974026,41.3116883 L45.1350649,41.3116883 C45.8532468,41.3116883 46.4337662,41.8935065 46.4337662,42.6103896 C46.4337662,43.3272727 45.8532468,43.9090909 45.1350649,43.9090909 L1.5974026,43.9090909 C0.879220779,43.9090909 0.298701299,43.3285714 0.298701299,42.6103896 Z M0.298701299,45.9909091 C0.298701299,45.274026 0.879220779,44.6922078 1.5974026,44.6922078 L45.1350649,44.6922078 C45.8532468,44.6922078 46.4337662,45.274026 46.4337662,45.9909091 C46.4337662,46.7077922 45.8532468,47.2896104 45.1350649,47.2896104 L1.5974026,47.2896104 C0.879220779,47.2896104 0.298701299,46.7090909 0.298701299,45.9909091 Z M0.298701299,49.3714286 C0.298701299,48.6545455 0.879220779,48.0727273 1.5974026,48.0727273 L45.1350649,48.0727273 C45.8532468,48.0727273 46.4337662,48.6545455 46.4337662,49.3714286 C46.4337662,50.0883117 45.8532468,50.6701299 45.1350649,50.6701299 L1.5974026,50.6701299 C0.879220779,50.6701299 0.298701299,50.0896104 0.298701299,49.3714286 Z M0.298701299,52.7532468 C0.298701299,52.0363636 0.879220779,51.4545455 1.5974026,51.4545455 L45.1350649,51.4545455 C45.8532468,51.4545455 46.4337662,52.0363636 46.4337662,52.7532468 C46.4337662,53.4701299 45.8532468,54.0519481 45.1350649,54.0519481 L1.5974026,54.0519481 C0.879220779,54.0519481 0.298701299,53.4701299 0.298701299,52.7532468 Z M45.1350649,57.4324675 L1.5974026,57.4324675 C0.879220779,57.4324675 0.298701299,56.8506494 0.298701299,56.1337662 C0.298701299,55.4168831 0.879220779,54.8350649 1.5974026,54.8350649 L45.1350649,54.8350649 C45.8532468,54.8350649 46.4337662,55.4168831 46.4337662,56.1337662 C46.4337662,56.8506494 45.8532468,57.4324675 45.1350649,57.4324675 Z M84.3714286,34.4688312 C85.0896104,34.4688312 85.6701299,35.0506494 85.6701299,35.7675325 C85.6701299,36.4844156 85.0896104,37.0662338 84.3714286,37.0662338 L59.3545455,37.0662338 C58.6363636,37.0662338 58.0558442,36.4844156 58.0558442,35.7675325 C58.0558442,35.0506494 58.6363636,34.4688312 59.3545455,34.4688312 L84.3714286,34.4688312 Z M65.7519481,1.35194805 C65.7519481,0.635064935 66.3324675,0.0532467532 67.0506494,0.0532467532 L76.6766234,0.0532467532 C77.3948052,0.0532467532 77.9753247,0.635064935 77.9753247,1.35194805 C77.9753247,2.06883117 77.3948052,2.65064935 76.6766234,2.65064935 L67.0506494,2.65064935 C66.3324675,2.65064935 65.7519481,2.06883117 65.7519481,1.35194805 Z M56.3363636,33.6181818 L87.3909091,33.6181818 C88.1090909,33.6181818 88.6896104,33.0363636 88.6896104,32.3194805 L88.6896104,4.82077922 C88.6896104,4.1038961 88.1090909,3.52207792 87.3909091,3.52207792 L56.3363636,3.52207792 C55.6181818,3.52207792 55.0376623,4.1038961 55.0376623,4.82077922 L55.0376623,32.3194805 C55.0376623,33.0363636 55.6181818,33.6181818 56.3363636,33.6181818 Z M57.6350649,6.11948052 L86.0922078,6.11948052 L86.0922078,31.0207792 L57.6350649,31.0207792 L57.6350649,6.11948052 Z M71.8636364,7.61298701 C65.8220779,7.61298701 60.9051948,12.5285714 60.9051948,18.5714286 C60.9051948,24.6142857 65.8207792,29.5298701 71.8636364,29.5298701 C77.9064935,29.5298701 82.8220779,24.6142857 82.8220779,18.5714286 C82.8220779,12.5285714 77.9051948,7.61298701 71.8636364,7.61298701 Z M71.8636364,26.9311688 C67.2532468,26.9311688 63.5025974,23.1805195 63.5025974,18.5701299 C63.5025974,13.9597403 67.2532468,10.2090909 71.8636364,10.2090909 C76.474026,10.2090909 80.2246753,13.9597403 80.2246753,18.5701299 C80.2246753,23.1805195 76.4727273,26.9311688 71.8636364,26.9311688 Z M77.7636364,15.3454545 C78.1558442,15.9454545 77.9883117,16.7506494 77.3883117,17.1428571 L72.5753247,20.2948052 C72.3571429,20.4376623 72.1103896,20.5077922 71.8636364,20.5077922 C71.5064935,20.5077922 71.1506494,20.3597403 70.8974026,20.0766234 L68.5402597,17.4506494 C68.061039,16.9168831 68.1051948,16.0961039 68.638961,15.6168831 C69.1714286,15.138961 69.9935065,15.1805195 70.4727273,15.7155844 L72.0857143,17.5116883 L75.9649351,14.9714286 C76.5662338,14.5766234 77.3701299,14.7467532 77.7636364,15.3454545 Z M37.9194805,27.287013 C37.9194805,28.0038961 37.338961,28.5857143 36.6207792,28.5857143 L30.0207792,28.5857143 C29.3025974,28.5857143 28.7220779,28.0038961 28.7220779,27.287013 C28.7220779,26.5701299 29.3025974,25.9883117 30.0207792,25.9883117 L36.6207792,25.9883117 C37.338961,25.9883117 37.9194805,26.5701299 37.9194805,27.287013 Z" id="Shape"></path>
                                </g>
                            </g>
                        </g>
                    </g>
                </g>
            </g>
        </g>
    </g>
</svg>